<?xml version="1.0" encoding="utf-8"?>
<!-- Generator: Adobe Illustrator 16.0.3, SVG Export Plug-In . SVG Version: 6.00 Build 0)  -->
<!DOCTYPE svg PUBLIC "-//W3C//DTD SVG 1.1//EN" "http://www.w3.org/Graphics/SVG/1.1/DTD/svg11.dtd">
<svg version="1.1" id="Capa_1" xmlns="http://www.w3.org/2000/svg" xmlns:xlink="http://www.w3.org/1999/xlink" x="0px" y="0px"
	 width="800px" height="800px" viewBox="0 0 800 800" enable-background="new 0 0 800 800" xml:space="preserve">
<path fill="#A70B52" d="M219.88,563.797c90.46,0,163.801-73.336,163.801-163.797c0-90.46-73.336-163.797-163.801-163.797
	S56.079,309.54,56.079,400C56.079,490.461,129.415,563.797,219.88,563.797z"/>
<path fill="#FFFFFF" d="M259.765,457.644h-33.921V329.44h-12.579v140.854h12.579v-0.083h33.921V457.644z"/>
<path fill="#FFFFFF" d="M344.431,405.246h-84.467v-12.579h96.839c0.129,2.432,0.191,4.868,0.191,7.333
	c0,75.731-61.392,137.119-137.118,137.119c-75.728,0-137.119-61.388-137.119-137.119c0-75.73,61.392-137.118,137.123-137.118
	c1.996,0,3.988,0.041,5.968,0.129l-0.017,12.484c-1.982-0.092-3.967-0.138-5.951-0.138c-68.837,0-124.646,55.806-124.646,124.643
	c0,68.842,55.805,124.643,124.646,124.643c66.961,0,121.588-52.8,124.518-119.043L344.431,405.246z"/>
<path fill="#FFFFFF" d="M168.732,367.391c10.641,0,19.268-8.627,19.268-19.269c0-10.641-8.627-19.268-19.268-19.268l0,0
	c-10.642,0-19.269,8.627-19.269,19.269C149.463,358.764,158.09,367.391,168.732,367.391L168.732,367.391L168.732,367.391z"/>
<path fill="#808183" d="M465.015,480.4h117.043v-35.348h-74.07V318.475h-42.973V480.4z M723.472,329.877
	c-13.418-10.396-30.695-15.668-51.314-15.668c-24.483,0-44.939,7.521-59.163,21.731c-14.846,14.854-22.706,36.734-22.706,63.275
	c0,28.355,8.309,52.282,23.396,67.355c11.845,11.841,27.624,18.088,45.683,18.088c39.64,0,48.758-23.761,48.758-23.761v19.494
	h35.796v-91.448h-71.257v28.616h32.796c0,0,0.315,36.029-33.534,36.029c-8.6,0-16.261-3.121-22.154-9.015
	c-9.185-9.177-14.041-24.641-14.041-44.687c0-33.203,13.198-53.024,35.295-53.024c13.804,0,24.18,8.475,26.84,21.32h45.587
	C741.09,349.52,735.969,339.792,723.472,329.877L723.472,329.877z"/>
</svg>
