<?xml version="1.0" encoding="utf-8"?>
<!-- Generator: Adobe Illustrator 16.0.3, SVG Export Plug-In . SVG Version: 6.00 Build 0)  -->
<!DOCTYPE svg PUBLIC "-//W3C//DTD SVG 1.1//EN" "http://www.w3.org/Graphics/SVG/1.1/DTD/svg11.dtd">
<svg version="1.1" id="Capa_1" xmlns="http://www.w3.org/2000/svg" xmlns:xlink="http://www.w3.org/1999/xlink" x="0px" y="0px"
	 width="2500px" height="2500px" viewBox="0 0 2500 2500" enable-background="new 0 0 2500 2500" xml:space="preserve">
<path d="M567.194,1576.034c0-15.019,0.804-45.265,21.828-45.265c17.626,0,22.23,20.816,22.23,42.865
	c0,17.834,0.194,47.677-23.826,47.677C571.811,1621.299,567.194,1603.258,567.194,1576.034l-16.42-0.804
	c0,44.862,14.617,59.505,35.654,59.505c10.207,0,17.418-4.604,24.032-16.03h0.402c-0.207,12.205,2.412,37.47-23.229,37.47
	c-9.61,0-16.031-3.826-17.432-13.826h-15.421c2.205,19.027,15.421,27.236,33.254,27.236c12.218,0,23.631-4.409,30.635-15.421
	c7.419-11.803,8.418-22.217,8.418-35.848v-97.936h-15.823v12.62h-0.402c-5.408-10.609-14.617-15.629-24.837-15.629
	c-29.441,0-35.252,34.448-35.252,57.884L567.194,1576.034L567.194,1576.034z M294.219,1571.625
	c-7.808,4.604-16.627,8.002-25.031,12.01c-7.406,3.424-9.818,11.621-9.818,19.221c0,11.22,2.802,18.443,15.629,18.443
	c6.005,0,19.221-4.604,19.221-22.646l16.433,12.814c0,2.814-0.402,6.81,2.802,8.404c2.191,0.609,4.604,0.402,6.809,0.208v11.621
	c-1.206,0.207-2.412,0.401-3.605,0.804c-13.424,0.583-18.43-0.609-20.025-15.836h-0.401c-3.801,9.805-14.021,18.041-24.63,18.041
	c-22.23,0-28.638-12.438-28.638-32.658c0-4.202,0.597-20.246,16.019-27.055c9.014-4.008,31.451-12.412,33.448-14.008
	c3.398-2.606,2.996-7.017,2.996-12.813c0-12.62-4.812-17.432-17.626-17.432c-14.422,0-16.433,6.614-16.225,19.636H247.36
	c-0.805-23.047,10.609-33.06,33.047-33.06c33.047,0,30.245,27.639,30.245,30.245v63.89l-16.433-12.814V1571.625L294.219,1571.625z
	 M923.369,1575.425c0-34.253,8.611-44.655,21.828-44.655c21.231,0,21.62,28.248,21.62,43.475v13.801
	c0,12.619-4.591,33.254-21.023,33.254C924.16,1621.299,923.369,1599.458,923.369,1575.425l-16.018,0.402
	c0.401,9.805-2.412,58.896,32.645,58.896c13.424,0,20.232-4.41,27.042-17.626h0.402v14.617h15.213v-150.216H966.83v50.283h-0.389
	c-7.419-9.623-14.228-14.436-25.642-14.436c-23.825,0-34.642,25.836-33.448,58.494L923.369,1575.425L923.369,1575.425z
	 M1509.537,1530.757c16.641,0,23.463,12.814,23.463,46.458c0,26.237-4.604,44.071-23.463,44.071
	c-18.417,0-23.41-17.834-23.41-44.071C1486.127,1543.584,1493.325,1530.757,1509.537,1530.757v-13.424
	c-27.431,0-39.843,21.231-39.843,54.889c0,48.053,15.836,62.488,39.843,62.488c24.448,0,39.869-14.241,39.869-62.488
	c0-33.67-12.412-54.889-39.869-54.889V1530.757z M37.146,1403.42h2365.399v17.651H37.146V1403.42z M1212.491,950.995
	c63.331,0,95.562,63.423,95.562,141.644s-32.218,141.629-95.562,141.629c-63.345,0-95.562-63.408-95.562-141.629
	C1116.93,1014.404,1149.16,950.995,1212.491,950.995V830.441c-150.229,0-232.717,109.024-233.041,262.197
	c0.324,153.186,82.799,262.196,233.041,262.196c150.229,0,232.703-109.011,233.027-262.196
	c-0.324-153.187-82.812-262.197-233.027-262.197V950.995L1212.491,950.995z M1922.417,840.778v497.818h132.551v-131.085
	l50.063-60.374l113.408,191.459h166.453l-187.075-300.457l169.397-197.361h-167.906l-144.34,194.417V840.778H1922.417
	L1922.417,840.778z M891.399,840.778h141.396L859,1181.014v157.582H726.436v-182.627L565.897,840.778h142.875l91.32,178.218
	L891.399,840.778z M1607.213,949.491h95.729c31.059,0.025,56.217,25.224,56.191,56.282c-0.025,31.023-25.168,56.166-56.191,56.191
	l-95.729-0.272v108.985h86.885c35.368,0,57.455,32.411,60.387,64.81l8.846,103.097h141.396
	c-5.901-13.242-10.312-13.242-11.777-39.766l-4.436-79.518c0-47.132-33.863-94.264-63.331-107.52
	c25.058-13.255,67.768-69.219,67.768-123.719c0-54.498-26.523-147.284-138.466-147.284H1474.65v497.818h132.563V949.491
	L1607.213,949.491z M36.756,1631.714v-150.216h16.641v62.695h57.469v-62.695h16.627v150.216h-16.627v-72.501H53.397v72.501H36.756
	L36.756,1631.714z M223.469,1577.422c-0.804-26.043,1.206-60.089-34.85-60.089c-29.454,0-35.654,35.058-35.654,58.494
	c0,44.862,15.02,58.896,36.057,58.896c23.436,0,34.642-18.235,33.644-40.076H207.84c0.999,12.619-3.203,26.652-18.43,26.652
	c-22.23,0-19.636-28.857-20.025-43.877V1564.4c0.597-13.229,0.999-33.644,19.441-33.644c18.417,0,17.613,20.622,18.223,33.644
	h-37.651v13.021H223.469z M363.024,1520.355h18.625v13.424h-18.431v75.898c0,3.801-1.388,8.612,7.419,8.612h10.609v13.424h-17.419
	c-9.416,0.207-16.433-1.388-16.433-18.235v-79.699h-15.421v-13.424h15.421v-30.246h15.629V1520.355L363.024,1520.355z
	 M404.254,1631.714v-111.358h15.823v111.358H404.254z M404.254,1501.523v-20.025h15.823v20.025H404.254z M468.338,1532.559
	c8.016-9.598,16.225-15.227,28.248-15.227c16.614,0,27.431,8.819,27.431,28.442v85.926h-15.823v-81.516
	c0-11.621-3.8-19.429-16.627-19.429c-5.797,0-11.413,2.205-15.615,6.213c-6.407,5.797-7.211,12.204-7.211,20.245v74.499h-15.823
	v-111.358h15.421V1532.559L468.338,1532.559z M758.173,1571.625c-7.82,4.604-16.627,8.002-25.031,12.01
	c-7.406,3.424-9.818,11.621-9.818,19.221c0,11.22,2.802,18.443,15.629,18.443c6.005,0,19.221-4.604,19.221-22.646l16.433,12.814
	c0,2.814-0.401,6.81,2.802,8.404c2.191,0.609,4.591,0.402,6.81,0.208v11.621c-1.207,0.207-2.413,0.401-3.606,0.804
	c-13.423,0.583-18.417-0.609-20.024-15.836h-0.402c-3.801,9.805-14.021,18.041-24.63,18.041c-22.243,0-28.65-12.438-28.65-32.658
	c0-4.202,0.597-20.246,16.031-27.055c9.014-4.008,31.438-12.412,33.448-14.008c3.398-2.606,2.996-7.017,2.996-12.813
	c0-12.62-4.812-17.432-17.626-17.432c-14.422,0-16.433,6.614-16.225,19.636h-14.215c-0.805-23.047,10.609-33.06,33.047-33.06
	c33.047,0,30.245,27.639,30.245,30.245v63.89l-16.433-12.814V1571.625L758.173,1571.625z M823.645,1532.559
	c8.002-9.598,16.225-15.227,28.235-15.227c16.627,0,27.443,8.819,27.443,28.442v85.926H863.5v-81.516
	c0-11.621-3.8-19.429-16.627-19.429c-5.811,0-11.413,2.205-15.629,6.213c-6.406,5.797-7.211,12.204-7.211,20.245v74.499H808.21
	v-111.358h15.421v12.204H823.645L823.645,1532.559z M1131.314,1573.414l-19.429-79.919h-0.402l-19.831,79.919l-4.008,15.032
	l-11.011,43.268h-18.431l42.865-150.216h22.036l42.255,150.216h-18.43l-11.815-43.268h-47.47l4.008-15.032H1131.314
	L1131.314,1573.414z M1185.774,1631.714v-111.358h15.823v111.358H1185.774z M1185.774,1501.523v-20.025h15.823v20.025H1185.774z
	 M1251.258,1538.564h0.401c6.603-14.616,16.031-20.816,32.646-19.429v15.629c-20.44-3.593-32.45,9.222-32.45,29.441v67.508h-15.823
	v-111.358h15.227V1538.564z M1428.671,1526.554c-0.402-17.833-6.212-33.06-27.029-33.06c-28.857,0-29.26,41.062-29.26,60.893
	c-0.791,20.414-1.192,65.887,29.26,65.887c19.806,0,24.046-16.212,26.044-32.658c0.376-3.397,0.583-6.783,0.985-10.207h16.614
	c-0.376,3.009-0.376,6.212-0.791,9.222c-1.012,12.204-1.621,21.426-8.819,31.841c-7.834,10.816-18.235,16.821-32.658,16.821
	c-46.25,0-47.871-44.654-47.871-80.503c0-33.864,5.02-76.327,47.677-76.327c28.442,0,43.268,21.231,42.45,48.079h-16.602V1526.554
	L1428.671,1526.554z M1594.114,1532.559c8.002-9.598,16.212-15.227,28.248-15.227c16.614,0,27.432,8.819,27.432,28.442v85.926
	h-15.837v-81.516c0-11.621-3.8-19.429-16.614-19.429c-5.797,0-11.426,2.205-15.628,6.213c-6.407,5.797-7.198,12.204-7.198,20.245
	v74.499h-15.836v-111.358h15.421v12.204H1594.114L1594.114,1532.559z M1693.877,1575.425c0-34.253,8.611-44.655,21.841-44.655
	c21.231,0,21.634,28.248,21.634,43.475v13.801c0,12.619-4.604,33.254-21.05,33.254
	C1694.656,1621.299,1693.877,1599.458,1693.877,1575.425l-16.03,0.402c0.401,9.805-2.413,58.896,32.657,58.896
	c13.424,0,20.246-4.41,27.029-17.626h0.402v14.617h15.227v-150.216h-15.811v50.283h-0.402c-7.418-9.623-14.24-14.436-25.641-14.436
	c-23.839,0-34.655,25.836-33.462,58.494L1693.877,1575.425z M1786.819,1631.714v-111.358h15.797v111.358H1786.819z
	 M1786.819,1501.523v-20.025h15.797v20.025H1786.819z M1853.691,1520.355h18.624v13.424h-18.417v75.898
	c0,3.801-1.388,8.612,7.394,8.612h10.635v13.424h-17.432c-9.429,0.207-16.445-1.388-16.445-18.235v-79.699h-15.421v-13.424h15.421
	v-30.246h15.629v30.246H1853.691L1853.691,1520.355z M1894.934,1631.714v-111.358h15.798v111.358H1894.934z M1894.934,1501.523
	v-20.025h15.798v20.025H1894.934z M1979.031,1530.757c16.614,0,23.437,12.814,23.437,46.458c0,26.237-4.604,44.071-23.437,44.071
	c-18.417,0-23.437-17.834-23.437-44.071C1955.594,1543.584,1962.792,1530.757,1979.031,1530.757v-13.424
	c-27.432,0-39.844,21.231-39.844,54.889c0,48.053,15.811,62.488,39.844,62.488c24.447,0,39.843-14.241,39.843-62.488
	c0-33.67-12.412-54.889-39.843-54.889V1530.757z M2063.153,1532.559c8.002-9.598,16.212-15.227,28.248-15.227
	c16.614,0,27.431,8.819,27.431,28.442v85.926h-15.81v-81.516c0-11.621-3.826-19.429-16.641-19.429c-5.798,0-11.4,2.205-15.603,6.213
	c-6.434,5.797-7.225,12.204-7.225,20.245v74.499h-15.836v-111.358h15.421v12.204H2063.153L2063.153,1532.559z M2151.684,1631.714
	v-111.358h15.836v111.358H2151.684z M2151.684,1501.523v-20.025h15.836v20.025H2151.684z M2215.781,1532.559
	c8.002-9.598,16.212-15.227,28.248-15.227c16.614,0,27.431,8.819,27.431,28.442v85.926h-15.836v-81.516
	c0-11.621-3.8-19.429-16.614-19.429c-5.798,0-11.427,2.205-15.629,6.213c-6.407,5.797-7.198,12.204-7.198,20.245v74.499h-15.836
	v-111.358h15.422v12.204H2215.781L2215.781,1532.559z M2315.336,1576.034c0-15.019,0.791-45.265,21.842-45.265
	c17.6,0,22.217,20.816,22.217,42.865c0,17.834,0.207,47.677-23.839,47.677C2319.941,1621.299,2315.336,1603.258,2315.336,1576.034
	l-16.42-0.804c0,44.862,14.617,59.505,35.641,59.505c10.208,0,17.432-4.604,24.047-16.03h0.376
	c-0.182,12.205,2.412,37.47-23.229,37.47c-9.598,0-16.004-3.826-17.431-13.826h-15.408c2.205,19.027,15.408,27.236,33.229,27.236
	c12.204,0,23.631-4.409,30.647-15.421c7.393-11.803,8.404-22.217,8.404-35.848v-97.936h-15.836v12.62h-0.402
	c-5.395-10.609-14.617-15.629-24.824-15.629c-29.441,0-35.238,34.448-35.238,57.884L2315.336,1576.034L2315.336,1576.034z"/>
<path d="M2409.211,852.996c24.188,0,43.293,19.092,43.293,44.396c0,25.731-19.104,44.681-43.293,44.681
	c-24.447,0-43.539-18.949-43.539-44.681C2365.658,872.074,2384.764,852.996,2409.211,852.996v-8.91
	c-29.415,0-54.291,22.619-54.291,53.306c0,30.972,24.876,53.591,54.291,53.591c29.131,0,54.032-22.632,54.032-53.591
	c0-30.687-24.901-53.306-54.032-53.306V852.996L2409.211,852.996z"/>
<path d="M2397.914,874.63h12.711c6.511,0,13.449,1.413,13.449,9.053c0,9.468-7.094,10.038-14.993,10.038h-11.167v7.925h10.739
	l16.265,26.73h10.466l-17.535-27.146c9.04-1.128,15.979-5.94,15.979-16.965c0-12.165-7.225-17.548-21.789-17.548h-23.488v61.658
	h9.351V874.63H2397.914z M197.918,952.02c-22.334,15.849-37.638,41.918-37.638,71.385c-0.022,28.679,14.03,55.541,37.6,71.879
	L197.918,952.02z M155.884,956.728c-5.723,7.877-10.413,16.455-13.956,25.524L37.132,957.13V840.765h160.54l0.337,80.932
	c-8.715,4.331-17.535,9.753-24.811,16.095l-66.056-66.067L89.44,889.427L155.884,956.728z M135.392,1006.415
	c-0.766,5.318-1.154,11.479-1.154,17.004c0,6.523,0.544,12.918,1.607,19.144l-98.699,24.305v-84.68L135.392,1006.415
	L135.392,1006.415z"/>
<path d="M222.717,840.778v37.937l28.663-19.52l10.025,13.074l-38.688,26.691v91.307l74.783-38.352l1.077-55.925l16.562,0.479
	l-0.739,47.404l30.467-15.693l9.688,19.027l-33.151,17.301l39.999,26.354l-8.923,14.553l-48.378-32.438l-81.372,40.868v9.571
	l79.959,40.439l49.22-32.333l8.924,13.8l-40.895,27.431l35.161,17.704l-9.701,19.026l-34.305-17.587l1.271,48.546l-16.563,0.492
	l-2.01-57.871l-71.062-36.095v105.678l33.747,22.672l-8.56,14.915l-25.175-16.978v29.83h-25.031l-0.117-77.844
	c-8.385-4.143-16.226-9.305-23.345-15.369l-67.975,67.974l-18.262-18.273l68.506-68.662c-5.484-7.405-10.048-15.449-13.592-23.955
	l-105.756,24.928v246.697h505.198V840.778H222.717z"/>
</svg>
